<svg width="24" height="24" viewBox="0 0 24 24" fill="none" xmlns="http://www.w3.org/2000/svg">
<path d="M8.08392 3.14648H16.5186C19.4667 3.14648 21.3008 5.23471 21.3008 8.18986V16.164C21.3008 19.1191 19.4667 21.2074 16.5176 21.2074H8.08392C5.13581 21.2074 3.30078 19.1191 3.30078 16.164V8.18986C3.30078 5.23471 5.14456 3.14648 8.08392 3.14648Z" stroke="#051320" stroke-width="1.5" stroke-linecap="round" stroke-linejoin="round"/>
<path d="M9.25977 8.05273H15.3447" stroke="#051320" stroke-width="1.5" stroke-linecap="round" stroke-linejoin="round"/>
<path d="M21.2969 12.625H17.0129C16.1256 12.625 15.3161 13.1288 14.922 13.9264C14.4443 14.8929 13.4509 15.5567 12.3028 15.5567C11.1547 15.5567 10.1613 14.8929 9.68353 13.9264C9.28947 13.1288 8.47996 12.625 7.59261 12.625H3.3125" stroke="#051320" stroke-width="1.5" stroke-linecap="round" stroke-linejoin="round"/>
</svg>
