<svg width="24" height="15" viewBox="0 0 24 15" fill="none" xmlns="http://www.w3.org/2000/svg">
<path fill-rule="evenodd" clip-rule="evenodd" d="M21.7242 0.624512H20.3826C19.6416 0.624512 19.0409 1.20374 19.0409 1.91826V13.1308C19.0409 13.8453 19.6416 14.4245 20.3826 14.4245H21.7242C22.4652 14.4245 23.0659 13.8453 23.0659 13.1308V1.91826C23.0659 1.20374 22.4652 0.624512 21.7242 0.624512ZM14.0688 3.6434H15.4105C16.1514 3.6434 16.7521 4.22263 16.7521 4.93715V13.1309C16.7521 13.8454 16.1514 14.4246 15.4105 14.4246H14.0688C13.3278 14.4246 12.7271 13.8454 12.7271 13.1309V4.93715C12.7271 4.22263 13.3278 3.6434 14.0688 3.6434ZM9.09683 6.6619H7.75516C7.01418 6.6619 6.4135 7.24113 6.4135 7.95565V13.1306C6.4135 13.8452 7.01418 14.4244 7.75516 14.4244H9.09683C9.83781 14.4244 10.4385 13.8452 10.4385 13.1306V7.95565C10.4385 7.24113 9.83781 6.6619 9.09683 6.6619ZM2.78306 9.24936H1.4414C0.700416 9.24936 0.0997314 9.8286 0.0997314 10.5431V13.1306C0.0997314 13.8451 0.700416 14.4244 1.4414 14.4244H2.78306C3.52404 14.4244 4.12473 13.8451 4.12473 13.1306V10.5431C4.12473 9.8286 3.52404 9.24936 2.78306 9.24936Z" fill="black"/>
</svg>
