<svg width="20" height="15" viewBox="0 0 20 15" fill="none" xmlns="http://www.w3.org/2000/svg">
<path fill-rule="evenodd" clip-rule="evenodd" d="M9.84145 3.32279C12.678 3.32292 15.4061 4.43908 17.4618 6.44059C17.6166 6.59511 17.864 6.59316 18.0165 6.43621L19.4963 4.90681C19.5735 4.82721 19.6165 4.71939 19.6159 4.6072C19.6153 4.49501 19.571 4.38771 19.4929 4.30903C14.0972 -0.986475 5.58485 -0.986475 0.189155 4.30903C0.110995 4.38765 0.0666476 4.49492 0.0659269 4.60711C0.0652062 4.7193 0.108171 4.82715 0.185315 4.90681L1.66552 6.43621C1.81789 6.5934 2.06552 6.59535 2.22023 6.44059C4.27624 4.43895 7.00463 3.32278 9.84145 3.32279ZM9.8415 8.29847C11.4 8.29837 12.9029 8.8916 14.0581 9.9629C14.2144 10.1149 14.4605 10.1116 14.6128 9.95547L16.0909 8.42607C16.1687 8.34584 16.2119 8.23702 16.2108 8.12393C16.2097 8.01085 16.1643 7.90294 16.0849 7.82436C12.567 4.47315 7.11901 4.47315 3.60107 7.82436C3.5216 7.90294 3.47627 8.0109 3.47522 8.12402C3.47418 8.23714 3.51752 8.34596 3.59552 8.42607L5.07317 9.95547C5.22549 10.1116 5.47162 10.1149 5.62788 9.9629C6.78235 8.89231 8.28403 8.29913 9.8415 8.29847ZM12.8023 11.6465C12.8045 11.7599 12.761 11.8692 12.6819 11.9487L10.1252 14.591C10.0502 14.6687 9.94804 14.7124 9.84142 14.7124C9.7348 14.7124 9.63262 14.6687 9.55767 14.591L7.00048 11.9487C6.92149 11.8691 6.87803 11.7598 6.88037 11.6464C6.88271 11.533 6.93065 11.4256 7.01286 11.3496C8.6457 9.93524 11.0371 9.93524 12.67 11.3496C12.7521 11.4256 12.8 11.5331 12.8023 11.6465Z" fill="black"/>
</svg>
