<svg width="16" height="16" viewBox="0 0 16 16" fill="none" xmlns="http://www.w3.org/2000/svg">
<path d="M7.66156 1.85938H5.16889C3.11889 1.85938 1.83356 3.31071 1.83356 5.36537V10.908C1.83356 12.9627 3.11289 14.414 5.16889 14.414H11.0516C13.1082 14.414 14.3876 12.9627 14.3876 10.908V8.22271" stroke="#616161" stroke-width="1.33333" stroke-linecap="round" stroke-linejoin="round"/>
<path fill-rule="evenodd" clip-rule="evenodd" d="M5.88523 7.2805L10.8672 2.2985C11.4879 1.6785 12.4939 1.6785 13.1146 2.2985L13.9259 3.10983C14.5466 3.7305 14.5466 4.73716 13.9259 5.35716L8.9199 10.3632C8.64856 10.6345 8.28056 10.7872 7.89656 10.7872H5.39923L5.4619 8.26716C5.47123 7.8965 5.62256 7.54316 5.88523 7.2805Z" stroke="#616161" stroke-width="1.33333" stroke-linecap="round" stroke-linejoin="round"/>
<path d="M10.1102 3.06836L13.1542 6.11236" stroke="#616161" stroke-width="1.33333" stroke-linecap="round" stroke-linejoin="round"/>
</svg>
