<svg width="40" height="40" viewBox="0 0 40 40" fill="none" xmlns="http://www.w3.org/2000/svg">
<path fill-rule="evenodd" clip-rule="evenodd" d="M20 26C20.552 26 21 26.448 21 27C21 27.552 20.552 28 20 28C19.448 28 19 27.552 19 27C19 26.448 19.448 26 20 26Z" stroke="#051320" stroke-width="2" stroke-linecap="round" stroke-linejoin="round"/>
<path fill-rule="evenodd" clip-rule="evenodd" d="M20 19C20.552 19 21 19.448 21 20C21 20.552 20.552 21 20 21C19.448 21 19 20.552 19 20C19 19.448 19.448 19 20 19Z" stroke="#051320" stroke-width="2" stroke-linecap="round" stroke-linejoin="round"/>
<path fill-rule="evenodd" clip-rule="evenodd" d="M20 12C20.552 12 21 12.448 21 13C21 13.552 20.552 14 20 14C19.448 14 19 13.552 19 13C19 12.448 19.448 12 20 12Z" stroke="#051320" stroke-width="2" stroke-linecap="round" stroke-linejoin="round"/>
</svg>
