<svg width="40" height="40" viewBox="0 0 40 40" fill="none" xmlns="http://www.w3.org/2000/svg">
<path d="M20 40C31.0457 40 40 31.0457 40 20C40 8.9543 31.0457 0 20 0C8.95431 0 0 8.9543 0 20C0 31.0457 8.95431 40 20 40Z" fill="#EBEDEC"/>
<path d="M33.557 34.6998C29.8685 31.6694 25.147 29.8501 20.0007 29.8501C14.8538 29.8501 10.1319 31.6697 6.44324 34.7007C6.44324 34.7007 11.2851 39.9999 20.0007 39.9999C28.7162 39.9999 33.557 34.6998 33.557 34.6998Z" fill="#051320"/>
<path d="M20.0002 23.9748C23.7944 23.9748 26.8702 20.899 26.8702 17.1048C26.8702 13.3106 23.7944 10.2349 20.0002 10.2349C16.206 10.2349 13.1302 13.3106 13.1302 17.1048C13.1302 20.899 16.206 23.9748 20.0002 23.9748Z" stroke="#01CD98" stroke-width="4.97319" stroke-miterlimit="10"/>
</svg>
